<?xml version="1.0" encoding="utf-8"?>
<!-- Generator: Adobe Illustrator 25.4.0, SVG Export Plug-In . SVG Version: 6.00 Build 0)  -->
<svg version="1.1"
	 id="svg3077" inkscape:version="0.48.4 r9939" sodipodi:docname="Nouveau document 3" xmlns:cc="http://creativecommons.org/ns#" xmlns:dc="http://purl.org/dc/elements/1.1/" xmlns:inkscape="http://www.inkscape.org/namespaces/inkscape" xmlns:osb="http://www.openswatchbook.org/uri/2009/osb" xmlns:rdf="http://www.w3.org/1999/02/22-rdf-syntax-ns#" xmlns:sodipodi="http://sodipodi.sourceforge.net/DTD/sodipodi-0.dtd" xmlns:svg="http://www.w3.org/2000/svg"
	 xmlns="http://www.w3.org/2000/svg" xmlns:xlink="http://www.w3.org/1999/xlink" x="0px" y="0px" viewBox="0 0 595.3 841.9"
	 style="enable-background:new 0 0 595.3 841.9;" xml:space="preserve">
<style type="text/css">
	.st0{fill:url(#path30_00000014628773510420883960000005033601501202475682_);}
	.st1{fill:#17B617;}
	.st2{font-family:'ArialMT';}
	.st3{font-size:83.3533px;}
	.st4{fill:#FFFFFF;}
	.st5{font-size:59.7713px;}
	.st6{font-size:63.9577px;}
</style>
<sodipodi:namedview  bordercolor="#666666" borderopacity="1.0" id="base" inkscape:current-layer="layer1" inkscape:cx="357.32233" inkscape:cy="879.68526" inkscape:document-units="px" inkscape:pageopacity="0.0" inkscape:pageshadow="2" inkscape:window-height="705" inkscape:window-maximized="1" inkscape:window-width="1366" inkscape:window-x="-8" inkscape:window-y="-8" inkscape:zoom="0.98994949" pagecolor="#ffffff" showgrid="false">
	</sodipodi:namedview>
<linearGradient id="path30_00000138543107941734045450000014889391520126244781_" gradientUnits="userSpaceOnUse" x1="236.6716" y1="708.712" x2="382.5425" y2="708.712" gradientTransform="matrix(1 0 0 -1 0 844)">
	<stop  offset="0" style="stop-color:#316F0D;stop-opacity:0.9918"/>
	<stop  offset="0.25" style="stop-color:#42892B;stop-opacity:0.749"/>
	<stop  offset="0.5" style="stop-color:#78C427;stop-opacity:0.498"/>
	<stop  offset="1" style="stop-color:#6CBC29;stop-opacity:0"/>
</linearGradient>
<path id="path30" inkscape:connector-curvature="0" sodipodi:nodetypes="ssssssssssszzsssscssssc" style="fill:url(#path30_00000138543107941734045450000014889391520126244781_);" d="
	M325,138.6c-0.4,0.3-1.2,1-2.2,0.8c-2.1-0.3-53.2-26.5-54-24.8c-0.4,1,49.6,26.8,51.3,28.3c1.1,1,1.7,1.3,1.2,3.5
	c-0.7,2.9-35.8,31.9-33.9,33.9c0.9,0.9,34.7-31,37.2-30.4c1.7,0.5,6.7,33.2,7.7,30.8c1.4-3.4-3.1-25.8-3-32.2c0-0.7,0.1-1.2,0.2-1.4
	c0.5-0.6,0.4-0.5,1.3-0.5c11.5-0.1,157.8,0.7,158.2-0.8c0.4-1.5-156.4-3.1-157.1-3.4c-0.8-0.2-1.5-0.3-1.9-0.9
	c-0.3-0.4-0.5-0.9-0.7-2c-0.1-0.6,15.6-49.6,15.1-49.9C343.7,89.4,326.3,137.6,325,138.6L325,138.6z M326.8,145.2
	c2.5-0.9-0.9-3.3-0.2-0.4c0.8,2.8,2.2-1.4-0.4-0.5c-2.5,0.9,0.6,3.5-0.2,0.7C325.3,142.1,324.2,146.1,326.8,145.2L326.8,145.2z"/>
<text transform="matrix(1.0538 0 0 1 287.4016 164.0075)" class="st1 st2 st3">O</text>
<text transform="matrix(1.2415 0 0 1 106.3064 152.2194)" class="st4 st2 st5">pertin</text>
<text transform="matrix(1.2002 0 0 1 351.3918 152.0846)" class="st4 st2 st6">mis</text>
</svg>
