<svg id="Layer_1" data-name="Layer 1" xmlns="http://www.w3.org/2000/svg" viewBox="0 0 384 384"><defs><style>.cls-1{fill:#2da491;}</style></defs><path class="cls-1" d="M353.19,252.05a218,218,0,0,1-68.47-10.9c-10.91-3.72-23.32-.84-30.44,6.41l-43.18,32.6C161,253.43,130.19,222.59,103.82,172.9l31.64-42.06a31,31,0,0,0,7.63-31.44,218.4,218.4,0,0,1-11-68.59A30.84,30.84,0,0,0,101.33,0H30.81A30.84,30.84,0,0,0,0,30.81C0,225.56,158.44,384,353.19,384A30.84,30.84,0,0,0,384,353.19V282.86A30.85,30.85,0,0,0,353.19,252.05Zm9.48,101.14a9.49,9.49,0,0,1-9.48,9.48c-183,0-331.86-148.87-331.86-331.86a9.49,9.49,0,0,1,9.48-9.48h70.52a9.49,9.49,0,0,1,9.48,9.48,239.17,239.17,0,0,0,12,75.12c1.11,3.54.21,7.21-3.37,10.94L82.75,165.43a10.68,10.68,0,0,0-1,11.26c29.93,58.82,66.29,95.19,125.53,125.54a10.63,10.63,0,0,0,11.29-1l49.68-37.64a9.43,9.43,0,0,1,9.67-2.25,239.49,239.49,0,0,0,75.27,12,9.49,9.49,0,0,1,9.48,9.47Z"/></svg>