<svg xmlns="http://www.w3.org/2000/svg" viewBox="0 0 238.65 260.68"><defs><style>.cls-1{fill:#002395;}.cls-2{fill:red;}.cls-3{fill:#e00c19;}.cls-4{fill:#fff;}</style></defs><title>Fichier 10</title><g id="Calque_2" data-name="Calque 2"><g id="Calque_1-2" data-name="Calque 1"><rect class="cls-1" x="192.47" y="114.9" width="63.81" height="20.2" transform="translate(98.6 348.94) rotate(-89.8)"/><polygon class="cls-1" points="88.58 0.07 66.74 0 43.58 34.66 31.74 52.69 37.23 58.97 45.82 59 65.74 31.55 65.49 106.57 98.17 106.68 98.23 87.48 88.29 87.45 88.58 0.07"/><polygon class="cls-1" points="19.11 9.66 0.23 9.59 0 87.41 16.27 87.47 16.42 34.74 29.56 49.98 40.57 33.38 19.11 9.66"/><path class="cls-2" d="M224.37,82.54a14.28,14.28,0,1,0-14.28-14.28A14.28,14.28,0,0,0,224.37,82.54Z"/><path class="cls-1" d="M78.89,235H77.15c-11.43-.11-19.2-8-19.67-19.7,0-.22,0-.43,0-.65s0-.34,0-.52,0-.3,0-.45,0-.5,0-.74,0-.59.06-.88a1,1,0,0,1,0-.17c.89-11.2,8.59-18.59,19.75-18.63a49,49,0,0,1,7.66.5L95.9,176.89a54.41,54.41,0,0,0-18.66-3h-.48c-22.91-.08-40.39,16.2-41.42,38.16,0,.25,0,.51,0,.76s0,.76,0,1.14v.28c0,.38,0,.76,0,1.14s0,.51,0,.76c1,22,18.51,38.24,41.42,38.16h.48c5.46,0,13.43-.62,20.57-3.74l0-20.15C90.78,233.44,86.28,234.82,78.89,235Z"/><path class="cls-1" d="M117,106.84l32.83.11h4.81l8.16,0c14,.05,25.05,6.22,25,20-.05,14.32-12.7,23.2-25.14,23.15l-8.17,0,.12-38.44-18.38-.06L136,169.26l26.55.09c12.51,0,23.88-4.07,32-11.58s12.76-18.37,12.8-30.35c.08-24.35-17-39.53-44.53-39.63l-16-.05v0l-20.44-.07.06-18,22.07.07,6.59-10.5-28.62-.09L126.54,39l34.11.12L160.71,21l-55.81-.19-.29,86,12.34,0Z"/><polygon class="cls-1" points="126.51 224.71 148.56 224.77 154.8 214.27 126.55 214.19 126.61 193.65 160.74 193.76 160.8 175.65 104.97 175.46 104.94 184.24 104.85 212.63 104.69 260.47 165.87 260.68 165.93 242.86 126.45 242.73 126.51 224.71"/><path class="cls-3" d="M79.5,131.27H78.42V134h1c1,0,1.38-.34,1.39-1.45A1.14,1.14,0,0,0,79.5,131.27Z"/><path class="cls-2" d="M97.35,146.29a2.74,2.74,0,1,0,2.81,2.74A2.71,2.71,0,0,0,97.35,146.29Z"/><polygon class="cls-3" points="68.59 131.69 67.44 135.21 69.72 135.22 68.59 131.69"/><path class="cls-2" d="M126.46,116.05l-85.19-.28-.22,50.64,85.19.28ZM70.25,128.68l4,10.55H70.91l-.58-1.75-3.53,0-.59,1.75H62.89L67,128.67Zm-16.3,0,4.78,0c2.28,0,4.39,1.24,4.38,3.85S61,136.4,58.7,136.4H57v2.78H53.91Zm5.65,25.42-2.64-3v3H53.86l0-10.45h4.47c2.33,0,4.14,1.53,4.14,3.51a3.32,3.32,0,0,1-2.43,3.31l3.38,3.66Zm12.6,0-7.75,0,0-10.46,7.7,0v2.54l-4.61,0v1.35H72v2.48H67.55v1.55l4.67,0Zm12.65,0H82.37v-1.32a3.27,3.27,0,0,1-3.13,1.5,5.61,5.61,0,0,1-5.7-5.44c0-3.34,2.77-5.41,6.26-5.4a6.59,6.59,0,0,1,4.59,1.94l-1.94,1.88a3.56,3.56,0,0,0-2.66-1.13,2.74,2.74,0,1,0-.06,5.47,2.56,2.56,0,0,0,2.69-2.27h2.45Zm-3.8-15-2.64-3v3H75.31l0-10.46,4.47,0c2.33,0,4.14,1.52,4.14,3.51a3.32,3.32,0,0,1-2.44,3.31l3.38,3.65Zm4.88-10.44H89l0,10.46-3.08,0Zm3.71,25.41H86.56l0-10.45h3.08ZM93.93,135c-2.34-.65-3.19-1.68-3.18-3.25,0-2,1.57-3.13,4.53-3.12a7.62,7.62,0,0,1,4.16,1.12l-1.18,2.11a5.78,5.78,0,0,0-2.85-.75c-1.11,0-1.47.19-1.47.66s.48.62,2.31,1.13c2.7.74,3.48,1.76,3.47,3.34,0,2.41-2.1,3.24-4.86,3.23a9,9,0,0,1-4.64-1.19l1.06-2.3a7,7,0,0,0,3.43.95c1.36,0,1.82-.14,1.82-.58S96.15,135.64,93.93,135Zm3.39,19.42c-3.24,0-6.13-2.38-6.12-5.44s2.92-5.41,6.16-5.4,6.13,2.38,6.11,5.44S100.56,154.45,97.32,154.44Zm17.35-.13h-2.06l-4.56-6.24,0,6.23h-3l0-10.46h3.26l3.37,4.69,0-4.68h3Z"/><path class="cls-3" d="M58.05,146.14H57v2.72h1c1,0,1.39-.34,1.39-1.44A1.14,1.14,0,0,0,58.05,146.14Z"/><path class="cls-3" d="M59.91,132.56c0-1-.42-1.36-1.34-1.36H57v2.72h1.54C59.48,133.92,59.9,133.56,59.91,132.56Z"/><path class="cls-4" d="M57,136.39H58.7c2.29,0,4.4-1.2,4.41-3.83s-2.1-3.84-4.38-3.85l-4.78,0,0,10.46H57Zm0-5.2h1.54c.92,0,1.34.38,1.34,1.36s-.43,1.36-1.35,1.35H57Z"/><path class="cls-4" d="M66.21,139.2l.59-1.75,3.53,0,.58,1.75h3.36l-4-10.55H67l-4.08,10.52Zm2.38-7.51,1.13,3.53H67.44Z"/><path class="cls-4" d="M84,132.3c0-2-1.81-3.5-4.14-3.51l-4.47,0,0,10.46H78.4v-3l2.64,3H84.9l-3.38-3.65A3.32,3.32,0,0,0,84,132.3ZM79.39,134h-1v-2.72H79.5a1.14,1.14,0,0,1,1.28,1.27C80.77,133.65,80.34,134,79.39,134Z"/><rect class="cls-4" x="82.23" y="132.5" width="10.46" height="3.08" transform="translate(-46.88 221.05) rotate(-89.81)"/><path class="cls-4" d="M94.71,137a7,7,0,0,1-3.43-.95l-1.06,2.3a9,9,0,0,0,4.64,1.19c2.76,0,4.86-.82,4.86-3.23,0-1.58-.77-2.6-3.47-3.34-1.83-.51-2.31-.69-2.31-1.13s.36-.67,1.47-.66a5.78,5.78,0,0,1,2.85.75l1.18-2.11a7.62,7.62,0,0,0-4.16-1.12c-3,0-4.52,1.12-4.53,3.12,0,1.57.84,2.6,3.18,3.25s2.6.86,2.6,1.35S96.07,137,94.71,137Z"/><path class="cls-4" d="M62.51,147.17c0-2-1.81-3.5-4.14-3.51H53.9l0,10.45H57v-3l2.64,3,3.86,0-3.38-3.66A3.32,3.32,0,0,0,62.51,147.17Zm-4.57,1.69H57v-2.72h1.07a1.14,1.14,0,0,1,1.28,1.28C59.33,148.52,58.89,148.86,57.94,148.86Z"/><polygon class="cls-4" points="67.55 150.06 72.03 150.07 72.04 147.59 67.55 147.58 67.56 146.23 72.17 146.25 72.18 143.71 64.48 143.68 64.45 154.14 72.2 154.17 72.21 151.63 67.54 151.61 67.55 150.06"/><path class="cls-4" d="M79.73,151.7a2.74,2.74,0,1,1,.06-5.47,3.56,3.56,0,0,1,2.66,1.13l1.94-1.88a6.59,6.59,0,0,0-4.59-1.94c-3.49,0-6.25,2.06-6.26,5.4a5.61,5.61,0,0,0,5.7,5.44,3.27,3.27,0,0,0,3.13-1.5v1.32h2.48l0-4.77H82.42A2.56,2.56,0,0,1,79.73,151.7Z"/><rect class="cls-4" x="82.89" y="147.45" width="10.46" height="3.08" transform="translate(-61.17 236.61) rotate(-89.81)"/><path class="cls-4" d="M97.36,143.6c-3.24,0-6.15,2.34-6.16,5.4s2.88,5.43,6.12,5.44,6.14-2.33,6.15-5.4S100.59,143.61,97.36,143.6Zm0,8.16a2.74,2.74,0,1,1,2.83-2.73A2.73,2.73,0,0,1,97.33,151.76Z"/><polygon class="cls-4" points="111.67 148.52 108.3 143.83 105.04 143.82 105.01 154.28 108.03 154.29 108.05 148.06 112.61 154.3 114.67 154.31 114.71 143.85 111.69 143.84 111.67 148.52"/><polygon class="cls-1" points="234.58 164.74 214.16 164.74 214.16 205.06 234.58 233.95 234.58 164.74"/><polyline class="cls-1" points="182.26 195.96 220.69 251.33 234.58 251.33 234.58 239.45 189.57 175.75 165.93 175.75 165.93 208.35 165.93 218 165.93 241.71 182.26 241.71 182.26 206.33 182.26 203.93 182.26 195.96"/></g></g></svg>